

<svg width="512" height="512" viewBox="0 0 512 512" fill="none" xmlns="http://www.w3.org/2000/svg">
<style>@media (prefers-color-scheme: dark) {.a { fill: #f0f0f0 }}</style>
<path class="a" fill="black" d="M158.19 340.82C148.633 340.82 139.86 338.705 131.87 334.475C124.037 330.245 117.77 324.37 113.07 316.85C108.527 309.33 106.255 300.4 106.255 290.06V218.385C106.255 215.878 105.628 213.607 104.375 211.57C103.122 209.533 101.477 207.888 99.44 206.635C97.4033 205.382 95.1317 204.755 92.625 204.755C90.1183 204.755 87.8467 205.382 85.81 206.635C83.7733 207.888 82.1283 209.533 80.875 211.57C79.7783 213.607 79.23 215.878 79.23 218.385V338H40.69V221.205C40.69 211.335 42.8833 202.64 47.27 195.12C51.8133 187.6 58.0017 181.647 65.835 177.26C73.825 172.873 82.755 170.68 92.625 170.68C102.652 170.68 111.582 172.873 119.415 177.26C127.248 181.647 133.437 187.6 137.98 195.12C142.523 202.64 144.795 211.335 144.795 221.205V292.88C144.795 295.543 145.422 297.893 146.675 299.93C147.928 301.967 149.495 303.612 151.375 304.865C153.412 305.962 155.605 306.51 157.955 306.51C160.462 306.51 162.733 305.962 164.77 304.865C166.963 303.612 168.687 301.967 169.94 299.93C171.193 297.893 171.82 295.543 171.82 292.88V221.205C171.82 211.335 174.092 202.64 178.635 195.12C183.178 187.6 189.367 181.647 197.2 177.26C205.19 172.873 214.042 170.68 223.755 170.68C233.782 170.68 242.633 172.873 250.31 177.26C258.143 181.647 264.332 187.6 268.875 195.12C273.418 202.64 275.69 211.335 275.69 221.205V338H237.15V218.15C237.15 215.643 236.523 213.45 235.27 211.57C234.173 209.533 232.607 207.888 230.57 206.635C228.533 205.382 226.262 204.755 223.755 204.755C221.405 204.755 219.133 205.382 216.94 206.635C214.903 207.888 213.258 209.533 212.005 211.57C210.752 213.45 210.125 215.643 210.125 218.15V290.06C210.125 300.4 207.775 309.33 203.075 316.85C198.375 324.37 192.108 330.245 184.275 334.475C176.442 338.705 167.747 340.82 158.19 340.82ZM418.664 340.82C408.794 340.82 399.942 338.705 392.109 334.475C384.275 330.088 378.087 324.057 373.544 316.38C369 308.703 366.729 300.008 366.729 290.295V218.385C366.729 215.878 366.102 213.607 364.849 211.57C363.595 209.533 361.95 207.888 359.914 206.635C357.877 205.382 355.605 204.755 353.099 204.755C350.592 204.755 348.32 205.382 346.284 206.635C344.247 207.888 342.602 209.533 341.349 211.57C340.252 213.607 339.704 215.878 339.704 218.385V338H301.164V221.205C301.164 211.335 303.357 202.64 307.744 195.12C312.287 187.6 318.475 181.647 326.309 177.26C334.299 172.873 343.229 170.68 353.099 170.68C363.125 170.68 372.055 172.873 379.889 177.26C387.722 181.647 393.91 187.6 398.454 195.12C402.997 202.64 405.269 211.335 405.269 221.205V293.115C405.269 295.622 405.895 297.972 407.149 300.165C408.402 302.202 409.969 303.847 411.849 305.1C413.885 306.197 416.079 306.745 418.429 306.745C420.935 306.745 423.207 306.197 425.244 305.1C427.437 303.847 429.16 302.202 430.414 300.165C431.667 297.972 432.294 295.622 432.294 293.115V173.5H470.599V290.295C470.599 300.008 468.327 308.703 463.784 316.38C459.24 324.057 453.052 330.088 445.219 334.475C437.385 338.705 428.534 340.82 418.664 340.82Z" />
</svg>
