<svg xmlns="http://www.w3.org/2000/svg" width="512" height="512" fill="none" viewBox="0 0 512 512"><style>@media (prefers-color-scheme:dark){.a{fill:#f0f0f0}}</style><path fill="#000" d="M158.19 340.82q-14.335 0-26.32-6.345-11.75-6.345-18.8-17.625-6.815-11.28-6.815-26.79v-71.675q0-3.76-1.88-6.815a14.85 14.85 0 0 0-4.935-4.935q-3.055-1.88-6.815-1.88t-6.815 1.88a14.86 14.86 0 0 0-4.935 4.935q-1.645 3.055-1.645 6.815V338H40.69V221.205q0-14.805 6.58-26.085 6.815-11.28 18.565-17.86 11.985-6.58 26.79-6.58 15.04 0 26.79 6.58t18.565 17.86 6.815 26.085v71.675q0 3.994 1.88 7.05t4.7 4.935q3.055 1.645 6.58 1.645 3.76 0 6.815-1.645 3.29-1.88 5.17-4.935t1.88-7.05v-71.675q0-14.805 6.815-26.085t18.565-17.86q11.985-6.58 26.555-6.58 15.04 0 26.555 6.58 11.75 6.58 18.565 17.86t6.815 26.085V338h-38.54V218.15q0-3.76-1.88-6.58-1.645-3.055-4.7-4.935t-6.815-1.88q-3.525 0-6.815 1.88a14.85 14.85 0 0 0-4.935 4.935q-1.88 2.82-1.88 6.58v71.91q0 15.51-7.05 26.79t-18.8 17.625-26.085 6.345m260.474 0q-14.805 0-26.555-6.345-11.75-6.58-18.565-18.095-6.816-11.516-6.815-26.085v-71.91q0-3.76-1.88-6.815a14.9 14.9 0 0 0-4.935-4.935q-3.056-1.88-6.815-1.88t-6.815 1.88a14.85 14.85 0 0 0-4.935 4.935q-1.645 3.055-1.645 6.815V338h-38.54V221.205q0-14.805 6.58-26.085 6.814-11.28 18.565-17.86 11.985-6.58 26.79-6.58 15.039 0 26.79 6.58t18.565 17.86q6.815 11.28 6.815 26.085v71.91q0 3.76 1.88 7.05 1.88 3.055 4.7 4.935 3.055 1.645 6.58 1.645 3.76 0 6.815-1.645 3.29-1.88 5.17-4.935a14 14 0 0 0 1.88-7.05V173.5h38.305v116.795q0 14.57-6.815 26.085t-18.565 18.095q-11.75 6.345-26.555 6.345" class="a"/></svg>